<svg id="visual" viewBox="0 0 900 600" width="900" height="600" xmlns="http://www.w3.org/2000/svg" xmlns:xlink="http://www.w3.org/1999/xlink" version="1.1"><rect x="0" y="0" width="900" height="600" fill="#161616"></rect><path d="M0 367L21.5 379.2C43 391.3 86 415.7 128.8 415.5C171.7 415.3 214.3 390.7 257.2 387C300 383.3 343 400.7 385.8 404.3C428.7 408 471.3 398 514.2 399.2C557 400.3 600 412.7 642.8 421.7C685.7 430.7 728.3 436.3 771.2 436.8C814 437.3 857 432.7 878.5 430.3L900 428L900 601L878.5 601C857 601 814 601 771.2 601C728.3 601 685.7 601 642.8 601C600 601 557 601 514.2 601C471.3 601 428.7 601 385.8 601C343 601 300 601 257.2 601C214.3 601 171.7 601 128.8 601C86 601 43 601 21.5 601L0 601Z" fill="#495c6b"></path><path d="M0 450L21.5 444.5C43 439 86 428 128.8 430.2C171.7 432.3 214.3 447.7 257.2 445C300 442.3 343 421.7 385.8 412.2C428.7 402.7 471.3 404.3 514.2 404.7C557 405 600 404 642.8 412.2C685.7 420.3 728.3 437.7 771.2 438.7C814 439.7 857 424.3 878.5 416.7L900 409L900 601L878.5 601C857 601 814 601 771.2 601C728.3 601 685.7 601 642.8 601C600 601 557 601 514.2 601C471.3 601 428.7 601 385.8 601C343 601 300 601 257.2 601C214.3 601 171.7 601 128.8 601C86 601 43 601 21.5 601L0 601Z" fill="#3a4d62"></path><path d="M0 500L21.5 500C43 500 86 500 128.8 501.3C171.7 502.7 214.3 505.3 257.2 504.7C300 504 343 500 385.8 496.3C428.7 492.7 471.3 489.3 514.2 489C557 488.7 600 491.3 642.8 486.2C685.7 481 728.3 468 771.2 466.3C814 464.7 857 474.3 878.5 479.2L900 484L900 601L878.5 601C857 601 814 601 771.2 601C728.3 601 685.7 601 642.8 601C600 601 557 601 514.2 601C471.3 601 428.7 601 385.8 601C343 601 300 601 257.2 601C214.3 601 171.7 601 128.8 601C86 601 43 601 21.5 601L0 601Z" fill="#2f3e59"></path><path d="M0 517L21.5 516.2C43 515.3 86 513.7 128.8 517.7C171.7 521.7 214.3 531.3 257.2 529.7C300 528 343 515 385.8 513.8C428.7 512.7 471.3 523.3 514.2 529.8C557 536.3 600 538.7 642.8 536.5C685.7 534.3 728.3 527.7 771.2 522C814 516.3 857 511.7 878.5 509.3L900 507L900 601L878.5 601C857 601 814 601 771.2 601C728.3 601 685.7 601 642.8 601C600 601 557 601 514.2 601C471.3 601 428.7 601 385.8 601C343 601 300 601 257.2 601C214.3 601 171.7 601 128.8 601C86 601 43 601 21.5 601L0 601Z" fill="#272f4f"></path><path d="M0 562L21.5 558.7C43 555.3 86 548.7 128.8 548.5C171.7 548.3 214.3 554.7 257.2 559.2C300 563.7 343 566.3 385.8 564.2C428.7 562 471.3 555 514.2 555.8C557 556.7 600 565.3 642.8 562.7C685.7 560 728.3 546 771.2 539.3C814 532.7 857 533.3 878.5 533.7L900 534L900 601L878.5 601C857 601 814 601 771.2 601C728.3 601 685.7 601 642.8 601C600 601 557 601 514.2 601C471.3 601 428.7 601 385.8 601C343 601 300 601 257.2 601C214.3 601 171.7 601 128.8 601C86 601 43 601 21.5 601L0 601Z" fill="#222043"></path></svg>